<?xml version="1.0" encoding="iso-8859-1"?>
<!-- Uploaded to: SVG Repo, www.svgrepo.com, Generator: SVG Repo Mixer Tools -->
<svg height="800px" width="800px" version="1.1" id="Layer_1" xmlns="http://www.w3.org/2000/svg" xmlns:xlink="http://www.w3.org/1999/xlink" 
	 viewBox="0 0 512 512" xml:space="preserve">
<path style="fill:#F9DE8F;" d="M234.287,133.168L98.013,285.472c-12.458,13.924-11.869,35.155,1.342,48.367l0,0
	c13.211,13.211,34.443,13.8,48.367,1.342l152.305-136.272L234.287,133.168z"/>
<path style="fill:#F7CF6D;" d="M262.625,101.495l-28.339,31.674c5.628,14.487,14.282,28.07,25.977,39.765
	c11.694,11.694,25.278,20.348,39.765,25.977l31.673-28.339L262.625,101.495z"/>
<circle style="fill:#F09EA0;" cx="343.843" cy="89.17" r="81.529"/>
<path style="fill:#EF8990;" d="M390.219,165.545L269.708,39.293c-2.308-2.417-2.219-6.249,0.2-8.556l19.003-18.139
	c2.417-2.308,6.249-2.219,8.556,0.2l120.51,126.252c2.308,2.417,2.219,6.249-0.2,8.556l-19.003,18.139
	C396.357,168.051,392.527,167.962,390.219,165.545z"/>
<path d="M78.712,416.039c-3.487-12.002-9.321-32.09,3.059-48.819c3.017-4.076,2.159-9.828-1.918-12.845
	c-4.075-3.015-9.827-2.158-12.845,1.919c-17.794,24.042-9.784,51.617-5.935,64.869c0.378,1.302,0.719,2.467,0.986,3.479
	c2.481,9.415,4.274,16.219,2.32,24.141c-2.72,11.017-12.227,21.503-28.261,31.167c-3.98,2.399-5.552,7.575-3.568,11.777
	c2.29,4.852,8.447,6.728,13.051,3.953c20.363-12.273,32.68-26.571,36.61-42.497c3.078-12.473,0.421-22.552-2.392-33.223
	C79.518,418.82,79.137,417.505,78.712,416.039C75.225,404.038,79.137,417.505,78.712,416.039z"/>
<path d="M421.163,130.597c17.718-33.628,12.202-75.022-14.46-102.954C380.043-0.288,338.95-7.723,304.534,8.41l-0.725-0.76
	c-6.372-6.677-16.988-6.922-23.663-0.551L263.154,23.32c-3.235,3.087-5.074,7.248-5.178,11.719s1.539,8.712,4.626,11.945
	l0.725,0.759c-8.307,15.766-11.51,33.237-9.817,50.23l-26.321,29.418c-2.306,2.576-2.968,6.227-1.717,9.45
	c6.277,16.159,15.713,30.604,28.044,42.933c8.855,8.855,18.806,16.208,29.693,21.98L141.344,328.685
	c-10.284,9.203-25.988,8.769-35.747-0.992s-10.197-25.463-0.962-35.783l96.523-108.968c3.363-3.797,3.011-9.601-0.786-12.964
	c-3.795-3.363-9.6-3.01-12.964,0.785L90.915,279.697c-15.701,17.547-14.958,44.335,1.692,60.985
	c8.64,8.639,20.005,12.996,31.396,12.995c10.563,0,21.148-3.748,29.589-11.302l152.28-136.25c0.009-0.007,0.018-0.013,0.026-0.022
	l31.203-27.919c1.713,0.099,3.429,0.164,5.148,0.164c12.782,0,25.65-2.77,37.702-8.42l0.729,0.763
	c3.087,3.234,7.248,5.072,11.717,5.176c0.133,0.004,0.267,0.005,0.4,0.005c4.321,0,8.409-1.636,11.546-4.63l16.993-16.22
	c3.235-3.087,5.074-7.248,5.178-11.719c0.104-4.47-1.539-8.712-4.626-11.946L421.163,130.597z M393.418,40.326
	c19.688,20.627,24.86,50.497,14.17,76.048L318.11,22.633C344.131,13.143,373.729,19.699,393.418,40.326z M297.97,188.548
	c-11.71-5.265-22.274-12.57-31.468-21.762c-9.193-9.191-16.497-19.756-21.761-31.465l13.816-15.442
	c4.127,11.211,10.553,21.73,19.23,30.82c10.418,10.915,23.048,18.676,36.614,23.15L297.97,188.548z M291.071,138.015
	c-19.689-20.626-24.86-50.497-14.17-76.049l89.477,93.742C340.357,165.199,310.762,158.642,291.071,138.015z M393.967,158.008
	l-0.004-0.004C393.966,158.005,393.967,158.008,393.967,158.008L393.967,158.008z M392.841,156.828L277.014,35.483l14.634-13.969
	L407.476,142.86L392.841,156.828z"/>
<path style="fill:#88E2E2;" d="M306.096,273.109c-6.877,1.101-11.935,7.034-11.935,13.998v44.574v95.42
	c-5.847-2.868-12.495-4.352-19.523-4.01c-20.901,1.016-37.62,18.371-37.899,39.295c-0.296,22.278,17.674,40.431,39.884,40.431
	c22.029,0,39.888-17.858,39.888-39.888c0-0.047,0.048-122.747,0.048-122.747c0-6.964,5.059-12.897,11.934-13.998l109.103-17.467
	c5.837-0.934,11.125,3.574,11.125,9.486v76.974c-5.842-2.856-12.483-4.33-19.501-3.985c-20.401,1.004-36.919,17.595-37.835,37.999
	c-1.026,22.866,17.207,41.726,39.846,41.726c21.956,0,39.763-17.74,39.881-39.667h0.006v-127.9v-45.393
	c0-5.912-5.289-10.421-11.125-9.486L306.096,273.109z"/>
<path d="M276.624,512c-13.231,0-25.637-5.187-34.929-14.606c-9.293-9.417-14.313-21.893-14.137-35.13
	c0.345-25.855,20.83-47.09,46.636-48.345c2.8-0.136,5.619-0.035,8.383,0.3c5.035,0.612,8.622,5.19,8.01,10.225
	c-0.612,5.035-5.196,8.626-10.225,8.01c-1.738-0.211-3.513-0.277-5.274-0.187c-16.139,0.785-28.949,14.07-29.164,30.244
	c-0.11,8.285,3.032,16.093,8.846,21.984c5.815,5.894,13.578,9.14,21.857,9.14c16.929,0,30.702-13.773,30.702-30.702
	c0-0.315,0.017-0.631,0.049-0.944V340.182c0-11.54,8.27-21.241,19.666-23.065l109.104-17.468c5.441-0.873,10.968,0.68,15.162,4.256
	c4.194,3.576,6.599,8.787,6.599,14.299v76.972c0,3.168-1.634,6.113-4.32,7.79c-2.689,1.679-6.049,1.85-8.897,0.46
	c-4.688-2.292-9.744-3.317-15.015-3.063c-15.624,0.769-28.41,13.612-29.112,29.238c-0.382,8.486,2.628,16.526,8.475,22.64
	c5.851,6.12,13.734,9.49,22.197,9.49c16.835,0,30.606-13.698,30.698-30.535l0.005-173.242c0-0.069,0-0.196-0.148-0.322
	c-0.148-0.127-0.274-0.108-0.342-0.096l-153.897,24.637c-2.434,0.389-4.203,2.464-4.203,4.929v76.818
	c0,5.073-4.111,9.184-9.184,9.184s-9.184-4.111-9.184-9.184v-76.818c0-11.542,8.272-21.243,19.668-23.066l153.897-24.637
	c5.438-0.872,10.967,0.678,15.162,4.256c4.194,3.576,6.599,8.787,6.599,14.299l-0.005,173.292
	c-0.147,26.96-22.158,48.852-49.065,48.852c-13.526,0-26.124-5.385-35.473-15.165c-9.346-9.773-14.157-22.616-13.547-36.158
	c1.122-24.99,21.572-45.53,46.558-46.761c3.614-0.176,7.228,0.043,10.768,0.65v-64.466c0-0.069,0-0.196-0.148-0.322
	c-0.148-0.127-0.274-0.107-0.342-0.096l-109.101,17.467c-2.434,0.391-4.203,2.464-4.203,4.929v122.609
	c0,0.342-0.02,0.683-0.058,1.02C325.215,490.464,303.388,512,276.624,512z"/>
</svg>